<svg width="1512" height="1041" viewBox="0 0 1512 1041" fill="none" xmlns="http://www.w3.org/2000/svg">
<path d="M307.221 931.262C159.491 1079.32 -12.9827 1014.6 -80.7529 963.73L-114.441 966.55L-126 828.429L1611.18 683.048L1703.01 766.958C1680.19 791.484 1632.18 836.663 1622.74 821.169C1610.94 801.802 1387.43 684.812 1207.81 855.893C1064.12 992.759 833.147 939.265 735.621 895.41C654.375 845.669 454.952 783.203 307.221 931.262Z" fill="#EFE9D5"/>
<path d="M341.5 848C199.9 968 52.1667 898 -4 848H-34V725H1513L1588 806C1566 826 1520.2 862.4 1513 848C1504 830 1315 710 1143.5 848C1006.3 958.4 806 894 723 848C654.833 798 483.1 728 341.5 848Z" fill="#D19665"/>
<path d="M0 748H1512V0H0V748Z" fill="#D19665"/>
</svg>
