<?xml version="1.0" encoding="UTF-8"?>
<svg xmlns="http://www.w3.org/2000/svg" viewBox="0 0 401.19 605.71">
  <defs>
    <style>
      .cls-1, .cls-2 {
        stroke-width: 0px;
      }

      .cls-2 {
        fill: #efe9d5;
      }
    </style>
  </defs>
  <g id="Layer_1" data-name="Layer 1">
    <path class="cls-2" d="m169.31,26.28c2.45,1.94,4.75,4.01,6.87,6.31,1.05,1.14,2.09,2.31,3.02,3.54-1.7-2.25,1.25,1.93,1.23,1.92,3.79,5.7,6.87,11.85,9.68,18.08,5.56,12.31,10.68,25.62,15.48,38.94,10.1,28.05,17.8,56.76,25.28,85.58,7.12,27.42,14.34,54.92,24.62,81.36,11.05,28.42,25.65,54.19,43.68,78.73,21.24,28.93,43.3,57.28,64.99,85.87,5.05,6.66,13.37,10.15,21.21,5.56,6.89-4.03,10.24-14.22,5.56-21.21-4.13-6.17-5.36-9.6-6.78-17.39,0,.02-.35-2.64-.19-1.2s-.08-1.26-.08-1.23c-.1-1.66-.21-3.31-.24-4.97-.07-3.86.13-7.73.54-11.57,1.53-14.29,7.09-30.79,9.7-46,5.26-30.66,4.27-61.99-3.19-92.22-7.38-29.89-21.29-57.73-39.97-82.13-19.16-25.03-41.71-46.88-64.29-68.78-26.52-25.72-53.44-50.92-83.05-73.09-6.1-4.57-15.82-1.59-20,3.99-5,6.69-3.67,14.07,1.21,20.35-1.38-1.77,2.07,2.74,1.79,2.36.69.92,1.38,1.85,2.07,2.78,1.71,2.32,3.4,4.67,5.06,7.03,3.49,4.96,6.86,10,10.1,15.12,6.19,9.75,11.94,19.78,17.23,30.05,10.71,20.79,18.46,40.03,25.26,62.88,6.59,22.13,10.27,45,16.95,67.09,3.52,11.62,7.96,23.14,13.83,33.78,5.77,10.46,13.28,19.77,20.51,29.22,17.32,22.64,30.2,47.8,42.79,73.26,5.44,11,20.86,9.09,26.77,0,11.87-18.26,18.22-40.5,17.31-62.31-.96-23.09-9.09-44.47-18.06-65.47-7.96-18.66-15.86-37.69-26.99-54.72-5.64-8.63-12.11-16.78-19.37-24.1-6.63-6.69-13.76-12.88-20.25-19.72-1.84-1.94-3.6-3.93-5.32-5.98s1.05,1.49-.53-.64c-.79-1.07-1.56-2.16-2.29-3.28-2.59-3.95-4.7-8.19-7.27-12.15-6.85-10.54-15.99-18.65-29.16-18.93-12.48-.27-18.34,13.18-13.38,23.32,33.99,69.63,71.33,137.82,91.59,212.56,4.56,16.83,30.49,13.47,30.45-4.12-.13-50.95-18.92-100.22-51.98-138.84-5.45-6.36-16.32-5.6-21.92,0-6.31,6.31-5.46,15.54,0,21.92,12.42,14.51,24.94,35.9,31.44,53.64,8.02,21.9,11.41,40.94,11.46,63.28,10.15-1.37,20.3-2.75,30.45-4.12-20.91-77.14-59.84-148.51-94.72-219.97-4.46,7.77-8.92,15.55-13.38,23.32,3.09.07.07.03-.42-.12-.43-.13-3.02-1.47-.4-.16,1.08.55,1.31,1.59-.19-.23.5.6,1.25,1.29,1.8,1.82.16.15,1.51,1.85.46.49-1.16-1.5.53.83.77,1.19,1.15,1.73,2.21,3.52,3.25,5.32,4.55,7.82,9.61,15.11,15.74,21.81,5.81,6.35,12.26,12.08,18.44,18.07,2.7,2.62,5.37,5.29,7.9,8.08,3.47,3.82,5.14,5.96,7.67,9.59,10.4,14.95,17.82,31.68,25.08,48.31s15.12,34.3,17.65,53.11c-.1-.74-.18-2.02.12,1.27.14,1.51.26,3.01.33,4.52.14,2.65.16,5.3.07,7.95-.21,5.87-.41,7.41-1.72,13.1-2.4,10.45-5.48,17.45-11.38,26.52h26.77c-11.22-22.69-22.52-45.52-37.41-66.08-7.02-9.69-14.82-18.81-21.35-28.85-6.88-10.59-10.57-19.23-14.23-30.65-7.03-21.98-10.61-44.89-17-67.05-6.76-23.46-15.78-46.34-26.63-68.2-12.18-24.55-27.04-47.4-43.83-69.02-6.26,8.11-12.52,16.23-18.78,24.34,23.96,17.93,47.34,39.81,69.44,61.13,21.75,20.98,44.01,41.77,63.21,65.19,4.46,5.44,7.96,10.08,12.31,16.5,4.08,6.01,7.88,12.21,11.32,18.61,6.95,12.91,11.23,23.73,15.27,38.25,7.39,26.57,9.14,56.31,4.56,82.37-6.11,34.73-21.56,72.76.31,105.41l26.77-15.65c-19.65-25.91-39.42-51.75-58.95-77.76-17.38-23.14-34.34-49.13-44.64-74.53-22.06-54.4-31.04-113.03-50.58-168.3-5.79-16.38-12.17-32.58-19.23-48.46-6.21-13.98-14.12-27.93-26.3-37.57-6.56-5.19-15.52-6.4-21.92,0-5.39,5.39-6.6,16.7,0,21.92h0Z"/>
    <path class="cls-2" d="m327.37,484.89c-25.6-32.37-55.42-64.73-96.12-77.18-23.04-7.05-47.3-5.72-71.01-4.27s-44.42,1.95-66.3-5.37c-5.03-1.68-8.79-3.17-12.67-4.96-5.34-2.46-10.6-5.14-15.69-8.09-.84-.49-1.68-1.06-2.54-1.52-3.87-2.09.81.96-1.1-.67-1.71-1.46-3.36-3.87-1.36-.57.84,1.4-.18,1.67.07.12-.03.21-1.48,4.43-.59,2.94,1.21-2.04-1.76,3.28.13-.01l-1.25.88c.68-.49,1.39-.95,2.12-1.37.75-.44,1.53-.81,2.3-1.2-2.77,1.4-.25.1.6-.14,1.87-.54,3.72-1.1,5.62-1.5,2.46-.53,4.95-.97,7.43-1.4,1.38-.24,2.76-.46,4.14-.68.46-.07,4.97-.7,2.52-.38,10.51-1.37,21.13-2.01,31.72-2.04,10.61-.03,21.21.57,31.75,1.78,1.11.13,2.22.26,3.33.4-2.15-.27.61.08.87.12,2.77.41,5.53.84,8.29,1.32,5.52.96,11.01,2.08,16.46,3.36,10.11,2.37,20.1,5.26,29.92,8.66,10.67,3.69,18.07,6.7,27.53,11.16,20.48,9.65,42.82,22.07,57.91,36.32,4.63,4.37,7.36,7.44,10.07,11.69,1.4,2.21,2.69,4.5,3.78,6.88-1.03-2.24,0,.03.13.46.45,1.44.95,2.85,1.33,4.31.32,1.22.57,2.44.81,3.67.19,1.12.19.99,0-.41.08.74.14,1.49.18,2.24.07,1.24.11,2.48.08,3.72-.01.68-.43,4.93.04,1.76-.35,2.41-1,4.77-1.8,7.06.9-2.58-.16.28-.51.94-.29.53-2.97,4.48-1.26,2.33-5.21,6.54-6.39,15.53,0,21.92,5.4,5.4,16.68,6.58,21.92,0,16.35-20.53,16.01-48.63,2.07-70.54-12.94-20.33-34.04-34.24-54.48-46.18-41.65-24.32-88.56-39.43-136.67-43.17-23.95-1.86-48.06-.41-71.67,3.99-10.48,1.95-21.56,5.53-28.78,13.85-10.19,11.74-8.67,28.74,2.78,39.14,9.22,8.38,21.5,13.74,32.86,18.54s23.24,8.68,35.58,10.58c26.8,4.13,53.34-.03,80.22-.17,13.87-.07,24.84.93,37.87,5.36.99.33,1.97.68,2.94,1.05.97.36,1.94.74,2.91,1.13-1.31-.56-1.11-.47.59.28,2.58,1.22,5.14,2.45,7.65,3.82,5.26,2.86,10.31,6.1,15.15,9.62-.05-.03,4.06,3.07,1.88,1.38,1.25.97,2.47,1.97,3.69,2.98,2.44,2.03,4.83,4.13,7.18,6.28,4.33,3.97,8.49,8.13,12.53,12.4,8.81,9.34,16.99,19.25,24.95,29.32,5.2,6.57,16.48,5.44,21.92,0,6.49-6.49,5.21-15.33,0-21.92h0Z"/>
    <path class="cls-2" d="m93.61,388.34c-.35-1.8-.37-1.74-.08.18-.07-.88-.11-1.76-.1-2.65,0-.88.06-1.76.15-2.64-.27,1.93-.23,2,.11.2.43-1.26.71-2.56,1.17-3.81-1.2,3.31,1.08-1.64,1.4-2.27,1.48-2.92-1.33,1.03.77-1.13.46-.47,4.5-4.17,1.75-2.06,1.4-1.08,2.95-1.94,4.53-2.74-2.4,1.22.22.14,1.28-.28,1.8-.36,1.73-.41-.19-.15.88-.09,1.76-.14,2.65-.15,1.36-.01,3.88.39,1.15-.11,1.76.33,3.43.82,5.14,1.35-3.23-1,1.57.84,2.32,1.29.67.4,3.6,2.81,1.19.69,1.33,1.18,2.6,2.4,3.75,3.77-2.11-2.51.17.62.6,1.21.79,1.59.84,1.55.15-.12.32.83.61,1.67.85,2.53.24.86.43,1.72.59,2.6-.21-1.71-.28-1.99-.2-.83-.38,1.3.03,3.24-.13,4.63.45-3.83-.66,1.62-.88,2.36-1.07,3.67,1.41-2.1-.53,1.2-.34.57-3.4,5.08-1.25,2.42-.98,1.22-2.09,2.28-3.21,3.37-.83.72-.64.61.57-.33-.71.52-1.45,1-2.21,1.46-.76.45-1.54.87-2.34,1.24,1.67-.69,1.66-.73-.03-.13-.72.16-4.61.65-1.1.45-1.78.1-3.51.12-5.29,0,3.69.26-.9-.39-1.74-.57-.64-.18-1.28-.38-1.9-.61,1.63.75,1.64.75.02-.01-1.56-.88-3.11-1.71-4.56-2.77,2.65,1.95-.58-.72-.9-1.04-.62-.63-1.21-1.29-1.78-1.97,1.07,1.39,1.11,1.36.11-.09-.47-.75-.89-1.52-1.29-2.32.65,1.69.67,1.69.06,0l-1.56,11.94c1.18-2.07,2.35-4.15,3.53-6.22-9.44-1.23-18.89-2.47-28.33-3.7,3.58,10.9,13.03,19.05,24.88,19s21.46-8.46,24.57-19.38c-8.64,2.28-17.27,4.56-25.91,6.84,2.21,1.9,4.42,3.8,6.64,5.69,8.55,7.34,22.79,5.14,25.91-6.84.73-2.79,1.45-5.58,2.18-8.37h-29.89c2.19,6.53,5.35,12.01,10.09,17.04,6.17,6.56,15.56,5.13,21.92,0,3.37-2.72,6.19-6.33,8.27-10.13-7.07,1.85-14.14,3.71-21.21,5.56,3.25,2.37,6.51,4.73,9.76,7.1,8.04,5.84,20.61-.23,22.77-9.26-2.11,5.04-5.37,7.6-9.79,7.68,1.74.06,1.55-.02-.56-.25,1.18.28,2.24.63,3.39,1,3.36,1.08,7.06,1.72,10.6,1.58,11.63-.44,19.66-8.12,20.63-19.67-6.54,4.98-13.08,9.96-19.62,14.95,3.15,1.29,6.3,2.82,9.52,3.91,4.54,1.54,8.54.9,13.2.77,3.75-.11,7.51-.05,11.26.17,3.36.2,6.56.49,8.94.88,14.17,2.3,26.71,6.75,38.16,12.59,24.37,12.43,45.9,29.61,69.82,42.82,7.1,3.92,17.23,1.96,21.21-5.56s2.02-17.02-5.56-21.21c-24.41-13.48-46.35-31.11-71.33-43.59-13.36-6.67-27.46-12.05-42.2-14.64-8.13-1.43-16.4-2.38-24.65-2.5-3.11-.05-8.92.74-10.92.35-1.77-.34-6.57-2.81-9.19-3.88-10.13-4.16-18.87,6.1-19.62,14.95,1.33-7.55,4.78-11.32,10.37-11.33-.55.05-1.1.05-1.65,0-1.15-.08,2.92,1.04-.21-.3s-7.13-2-10.4-2.03c-9.66-.1-18.9,5.2-21.26,15.07,7.59-3.09,15.18-6.18,22.77-9.26-3.25-2.37-6.51-4.73-9.76-7.1-6.65-4.83-17.49-1.23-21.21,5.56-.21.38-2.26,3.27-1.34,2.24s-2.13,1.67-2.08,1.62h21.92c-3.22-3.42,1.46,2.24-1.26-1.59-1.71-2.41.15,1.25-.86-1.77-2.1-6.27-7.93-11.69-14.95-11.38s-13.18,4.58-14.95,11.38c-.73,2.79-1.45,5.58-2.18,8.37,8.64-2.28,17.27-4.56,25.91-6.84-2.21-1.9-4.42-3.8-6.64-5.69-8.72-7.48-22.53-5-25.91,6.84,1.43-5.03,8.9-4,10.34.38-4.03-12.3-21.49-15.75-28.33-3.7-3.54,6.24-7.1,11.95-4.65,19.42,1.81,5.55,4.9,10.39,8.65,14.82,5.81,6.87,14.19,11.88,22.8,14.37,19.53,5.67,39.53-2.95,50.26-19.84,10.72-16.87,8.88-38.42-3.96-53.46-11.77-13.79-32.88-20-49.94-13.36-21.63,8.41-33.64,31.49-28.85,54.05,1.69,7.94,11.43,13.3,19.07,10.83,8.38-2.71,12.63-10.56,10.83-19.07h0Z"/>
  </g>
  <g id="Layer_2" data-name="Layer 2">
    <path class="cls-1" d="m343.91,539.91c-12.13-27.66-23.64-55.58-36.34-82.99-5.51-11.89-11.57-23.12-20.41-32.89s-19.6-17.77-30.38-25.22c-46.72-32.3-101.45-52.36-157.91-58.36-32.78-3.49-65.96-2.13-98.34,4.09-.57.11-.7.88-.33,1.25,10.93,11.15,29.19,13.36,42.48,5.03,7.17-4.5,11.65-11.81,17.9-17.35,9.66-8.56,22.48-4.11,31.25,3.58,3.78,3.31,6.7,7.44,10.3,10.93s7.15,6.31,11.12,8.94c7.94,5.26,16.81,9.02,25.98,11.55s18.74,4.25,28.13,4.25c11.45,0,22.66-2.89,33.72-5.53,12.58-3.01,25.47-6.17,38.23-2.22,5.99,1.86,11.54,5.26,15.73,9.96,5.5,6.18,6.03,13.65,3.62,21.29-.16.51.39,1.13.92.92,11.78-4.57,4.71-18.44-.67-25.5l-1.03,1.03c27.61,16.77,49.04,42.74,60.78,72.81,3.29,8.43,5.89,17.16,7.63,26.04,1.63,8.36,4.18,19.99,1.52,28.39-3.58,11.3-15.54,5.92-20.97-.5-4.85-5.73-8.52-11.71-14.38-16.56-13.11-10.85-29.57-16.35-45.49-21.61l.18,1.37c13.28-8.03,28.07-12.57,43.57-13.34.81-.04,1.07-1.29.2-1.47-13.79-2.93-28.8-2.07-41.66,4.05-3.14,1.5-6.17,3.24-9.41,4.52-5.37,2.12-9.84.75-14.64-1.98-3.77-2.14-7.61-4.17-11.38-6.32-4.37-2.48-9.65-5.46-12.28-9.93-4.36-7.42,4.39-11.14,10.37-12.35,11.67-2.36,23.73-4.32,35.69-3.93,4.63.15,10.58.59,14.11,3.99.67.65,1.84,1.88,1.9,2.92.12,2.31-2.61,1.44-4.45,1.32-4.12-.25-8.24-.5-12.35-.75-8.06-.49-16.07-1.06-24.1-1.88-5.92-.6-13.49-1.9-19.09.64-2.66,1.21-4.89,3.17-7.45,4.56-5.04,2.73-8.42.82-11.84-3.02-3.63-4.09-8.87-7.94-14.49-8.5-7.52-.75-15.7,1.72-23.16,2.31-4.21.33-10.2.95-13.71-1.56s-3.71-7.11-5.37-10.6c-1.97-4.14-7.75-6.1-12.04-6.44-6.93-.55-13.98,2.54-20.83,1.13-12.65-2.6-11.53-18.25-4.61-25.96,5.47-6.09,13.24-8.92,20.8-11.42l-.73-1.25c-.65.83-4.73,4.64-4.75,5.13.06-1.5,4.55-3.5,5.48-3.88l-.85-1.1c-10.22,13.86-20.82,27.66-38.44,31.8-4.42,1.04-9.3,1.02-13.72.02-2.3-.52-4.49-1.31-6.59-2.39-1-.52-1.97-1.09-2.9-1.71-1.21-.51-1.38-1.23-.52-2.15.35-1.96,2.94-4.01,4.18-5.48,1.35-1.62,2.69-3.24,4.01-4.88,2.47-3.07,4.87-6.19,7.2-9.37.45-.61-.42-1.42-1.03-1.03-1.1.72-4.25,2.12-4.55,3.69-.09.48.21.94.72.95,1.74.04,3.77-2.35,4.73-3.46.53-.61-.15-1.65-.91-1.18-9.44,5.89-23.71,13.97-34.72,7.47-4.27-2.52-7.02-6.89-9.36-11.12-1.01-1.82-1.96-3.67-3.14-5.39-1.08-1.57-2.7-2.71-3.79-4.2-1.29-1.76-1.3.08-.66-1.57.4-1.02,2.37-1.92,3.21-2.46,1.97-1.28,4.02-2.42,6.13-3.44,4.88-2.35,10.08-4.01,15.36-5.19,10.51-2.36,21.38-2.85,32.12-3.07,45-.89,91.91,9.83,132.99,28.04,20.03,8.88,39.53,20.1,56.52,34,15.7,12.86,28.65,28.65,39.17,45.95,5.09,8.36,9.63,17.05,13.82,25.89,2.12,4.48,4.14,8.99,6.1,13.54,1.11,2.58,2.31,5.16,3.29,7.8.8,2.15.86,4.33,1.6,6.46,1.92,5.56,4.77,10.88,6.82,16.42s3.95,11.19,5.78,16.83c3.63,11.16,7.9,22.35,10.31,33.85,1.51,7.18,2.91,16.21,1.09,23.51-1.01,4.05-4.48,10.74-9.38,7.55-5.17-3.37-3.31-9.41-.91-13.67,2.74-4.86,6.41-9.07,8.97-14.08s4.48-10.16,5.78-15.55c6.17-25.66,7.05-51.57,6.51-77.84-.02-.96-1.52-.97-1.5,0,.51,24.91-.59,48.95-5.61,73.41-2.36,11.49-7.05,20.97-13.67,30.55-3.57,5.17-7.15,12.72-1.37,17.67s10.33-.38,12.12-6.15c3.02-9.7.68-21.58-1.86-31.17-3.03-11.4-7.05-22.64-10.79-33.83-3.55-10.62-8.15-20.95-11.41-31.56-2.72-8.86-7.26-17.57-11.25-25.91-4.22-8.82-8.82-17.48-13.96-25.8-10.29-16.67-22.86-31.92-37.98-44.43-32.33-26.75-72.33-43.36-112.77-53.3-24.99-6.14-50.72-10.02-76.51-9.74-21.3.23-44.33,1.77-61.51,15.81-.37.3-.24.97.15,1.18,9.73,5.21,10.28,19.06,21.18,23.43s24.5-2.77,33.88-8.63l-.91-1.18c-.73.84-2.67,1.9-3.08,2.74-1.17,2.39,3.69-1.37,3.99-1.57l-1.03-1.03c-3.69,5.02-7.57,9.88-11.57,14.65-1.45,1.72-5.87,4.89-4.52,7.82,1.1,2.37,6.18,4,8.57,4.83,4.3,1.5,8.88,1.91,13.39,1.48,20-1.88,32.45-18.15,43.5-33.12.37-.51-.25-1.34-.85-1.1-1.41.57-8.01,3.66-6.63,6.31,1.59,3.05,6.83-4.38,7.36-5.06.42-.53.06-1.51-.73-1.25-12.55,4.15-28.65,11.79-27.11,27.69.6,6.23,4.66,11.35,10.91,12.59,6.82,1.34,13.69-1.5,20.53-1.13,5.05.28,10.09,2.45,11.98,7.32,1.15,2.95,1.95,6.22,4.17,8.6,4.99,5.32,15.79,2.84,22.12,2.01,4.82-.64,9.73-1.6,14.61-1.58,6.18.02,11.53,3.56,15.52,8.06,1.95,2.2,2.45,4.06,5.34,4.69,3.31.72,6.11-.15,8.94-1.81,1.89-1.11,3.63-2.49,5.56-3.53,3.37-1.81,7.12-1.78,10.86-1.7,5.2.1,10.35.83,15.51,1.34,11.75,1.16,23.61,1.53,35.39,2.25.38.02.79-.36.75-.75-.85-9.37-11.42-10.73-19.04-10.85-12.73-.2-26.7,1.22-38.88,4.92-10.07,3.06-10.95,11.65-3.41,18.17,3.82,3.3,8.33,5.75,12.76,8.11,4.88,2.6,9.73,6.42,15.26,7.38,8.24,1.42,16.2-5.77,23.65-8.16,11.19-3.59,23.09-3.95,34.55-1.51l.2-1.47c-15.75.78-30.83,5.38-44.33,13.54-.57.34-.43,1.17.18,1.37,17.73,5.86,36.95,12.11,50.11,26.12,5.09,5.42,8.39,12.89,14.87,16.93,4.46,2.79,10.52,3.73,14.61-.19,5.13-4.92,4.07-13.34,3.59-19.69-.74-9.83-2.72-19.55-5.56-28.98-5.07-16.8-12.97-32.73-23.38-46.86-11.42-15.49-25.71-28.65-42.16-38.64-.6-.36-1.5.41-1.03,1.03,4.62,6.06,12.21,19.17,1.57,23.3l.92.92c2.78-8.82,1.55-17.2-5.08-23.89-6.07-6.12-14.07-9.66-22.57-10.76-11.14-1.44-21.96,1.41-32.7,3.99-12.56,3.02-25.39,6.19-38.41,4.96-21.78-2.07-43.63-9.22-59.29-25.12-6.79-6.89-12.14-13.93-21.67-17.17-8.35-2.84-15.49-1.37-21.87,4.72-7.94,7.58-13.66,16.71-24.89,19.82s-24.03.09-32.37-8.42l-.33,1.25c57-10.95,116.45-6.46,171.4,12.1,26.14,8.83,51.15,20.87,74.36,35.8,23.13,14.88,44.17,31.57,56.32,56.82,14.2,29.52,26.46,59.97,39.61,89.96.39.88,1.68.12,1.3-.76h0Z"/>
    <path class="cls-1" d="m354.8,476.39c.14-23.11.27-46.32-2.7-69.28-2.88-22.32-9.42-43.8-15.92-65.28-13.53-44.73-25.63-90.32-43.03-133.75-2.18-5.44-4.47-10.83-6.82-16.19-1.87-4.27-3.25-8.81-5.29-12.97-5.29-10.8-10.56-21.3-13.58-33.02-.24-.93-1.69-.54-1.45.4,2.55,9.91,6.51,19.03,10.97,28.22,3.86,7.96,7.25,16.13,10.74,24.32,9.19,21.55,16.63,43.78,23.59,66.14s13.53,44.52,20.27,66.78c6.59,21.78,13.8,43.54,17.63,66.02,4.42,25.94,4.24,52.37,4.09,78.6,0,.97,1.49.97,1.5,0h0Z"/>
    <path class="cls-1" d="m307.53,307.44c-18.82-4.59-39.9-9.92-57.27,1.77-.25.17-.47.53-.34.85,6.36,15.53,16.51,28.09,27.76,40.31,5.93,6.44,12,12.76,18,19.13,6.55,6.96,12.55,13.7,15.94,22.81,4.82,12.99,1.76,29.17,10.45,40.71,3.51,4.65,9.25,7.49,14.03,10.65,6.76,4.48,12.97,9.28,16.81,16.61.45.86,1.74.1,1.3-.76-2.88-5.51-7.08-9.77-12.04-13.46-5.61-4.18-12.51-7.33-17.49-12.27-6.05-6-7.12-15.9-7.97-23.9-.74-6.98-1.77-13.69-4.52-20.22-6.27-14.9-20.07-25.97-30.87-37.58-6.28-6.75-12.66-13.5-18.03-21.03-2.48-3.47-4.78-7.06-6.86-10.79-.97-1.74-1.89-3.5-2.74-5.3-.34-.72-.84-1.52-1.05-2.29-.91-3.26-.3-3.15,1.81-4.31,16.28-8.98,35.81-3.61,52.69.51.94.23,1.34-1.22.4-1.45h0Z"/>
    <path class="cls-1" d="m267.56,145.93c-20.59-49.34-45.42-100.88-92.91-129.53-.53-.32-1.34.22-1.1.85,13.91,36.87,23.43,75.69,26.83,114.99.82,9.53,1.8,19.05,2.26,28.6.36,7.52.07,14.71,2.85,21.85,4.48,11.49,14.5,20.43,26.96,21.9,9.05,1.06,18.52.37,27.44-1.37,7.03-1.37,14.43-.69,17.75-8,.2-.44.05-.95-.45-1.1-1.06-.32-10.5-3.1-7.78,1.28,1.8,2.88,6.65,2.51,8.22-.18.25-.43.01-.96-.45-1.1-15.93-4.82-33.1-7.45-49.43-2.95-6.33,1.74-12.7,4.28-16.39,10.02-2.83,4.41-3.29,9.77-.72,14.41,4.11,7.43,9.35,14.1,13.12,21.79s6.8,15.98,8.7,24.44c1.01,4.48,1.71,9.03,2.09,13.61.29,3.47-.14,7.21.6,10.61,1.18,5.47,6.45,8.63,11.52,9.96,3.86,1.02,7.99.83,11.95,1.01,5.12.23,10.24.48,15.36.88,10.92.86,21.71,2.51,32.05,6.24.91.33,1.3-1.12.4-1.45-15.34-5.53-31.65-6.43-47.8-7.17-7.88-.36-20.36-.32-22.05-10.45-1.22-7.28-.78-14.72-2.31-22.05-3-14.43-9.18-27.98-17.09-40.35-2.16-3.39-5.48-6.88-6.45-10.86-1.09-4.46.79-9.13,3.89-12.34,6.12-6.34,16.9-8.23,25.34-8.92s17.05.2,25.35,1.98c.77.17,10.4,2.27,10.13,3.01-.47,1.26-5.24-.5-5-1.24-.13.41,8.42-.79,3.77,3.7-2.61,2.53-7.03,1.98-10.36,2.79-8.37,2.04-16.97,2.89-25.58,2.63-15.73-.48-28.31-9.44-32.58-24.91-2.05-7.46-1.36-15.55-1.87-23.22-.57-8.6-1.45-17.18-2.17-25.77-3.19-38.41-13.08-76.69-26.65-112.68l-1.1.85c47.13,28.44,71.79,79.67,92.22,128.63.37.88,1.82.49,1.45-.4h0Z"/>
    <path class="cls-1" d="m355.73,458.95c10.31-6,22.12-13.33,26.6-25.03,2.86-7.47.54-14.44.25-22.09-.31-8.3,3.66-15.54,7.79-22.45,3.55-5.93,7.28-11.83,9.15-18.55,2.07-7.41,2-15.22.93-22.79-1.13-8.01-3.35-15.86-5.74-23.57-1.3-4.19-3.07-8.18-8.17-7.29-3.44.6-6.99,2.93-10.13,4.39-4.09,1.91-8.17,3.84-12.24,5.81-2.03.98-4.06,1.98-6.09,2.98-2.33,1.15-4.65,2.51-3.67-1.55,1.14-4.69,7.14-7.38,11.49-7.77,7.46-.68,15.1,2.79,22.37-.21,4.5-1.85,7.36-5.73,8.96-10.21,2.01-5.61,2.14-11.8,2.14-17.69,0-7.16-.41-14.33-3.85-20.77-1.72-3.22-3.97-6.11-5.82-9.25-2.78-4.73-3.72-9.58-4.25-14.99-.67-6.77-1.68-13.18-4.84-19.3s-7.78-11.34-13.42-15.18c-4.6-3.14-12.73.95-17.38,2.93-13.91,5.93-25.29,16.78-31.91,30.36l1.3.76c9.25-21.28,28.13-37.16,50.7-42.58.94-.23.54-1.67-.4-1.45-22.91,5.5-42.2,21.66-51.6,43.27-.38.87.87,1.64,1.3.76,6.4-13.13,17.29-23.67,30.7-29.53,3.29-1.44,6.71-2.58,10.21-3.4,5.11-1.2,7.72.76,11.37,4.28,5.44,5.25,9.38,12.05,11.14,19.41s.95,14.82,3.9,21.71c3.47,8.1,9.58,13.86,10.85,22.98,1.93,13.83,2.01,38.3-17.39,37.62-7.17-.25-14.28-2.67-20.96,1.07-4.34,2.43-7.5,6.72-5.6,11.73.18.47.64.68,1.1.45,8.08-4.03,16.22-7.96,24.42-11.76,1.62-.75,3.51-2.02,5.28-2.42,7.57-1.72,7.89,1.39,9.32,6.09,1.22,4,2.38,8.03,3.38,12.09,1.93,7.92,3.3,16.12,2.63,24.29-.73,8.86-4.36,16.35-8.85,23.85-3.29,5.49-6.82,10.99-8.56,17.21-2.04,7.31.18,13.98.32,21.34.32,16.09-15.2,26-27.48,33.15-.83.49-.08,1.78.76,1.3h0Z"/>
    <path class="cls-1" d="m374.81,201.57c-6.64-6.78-11.79-14.79-14.91-23.77-2.56-7.36-2.19-15.59-5.13-22.74-3.18-7.74-12.96-8.23-15.99-15.63-1.05-2.55-1.14-5.4-2.31-7.92-1.28-2.75-3.35-4.48-5.89-6.03-4.36-2.66-7.54-4.67-9.86-9.52-1.36-2.85-2.42-6.31-4.89-8.46-4.06-3.54-8.74-1.41-12.32,1.66-6.79,5.84-12.55,13.01-18.79,19.42-4.46,4.58-8.94,9.44-8.58,16.23.03.64.8,1,1.28.53,10.22-9.98,31-14.12,31.23-31.42.21-16.13-15.42-24.43-28.84-28.26-.93-.27-1.33,1.18-.4,1.45,13.38,3.82,31.43,13.65,27.28,30.66-3.39,13.85-21.09,17.5-30.33,26.52l1.28.53c-.44-8.21,6.84-13.72,11.96-19.12,2.79-2.95,5.53-5.95,8.34-8.88s6.03-7.08,9.76-8.83c9.34-4.37,10.92,10.68,16.15,15.12,1.8,1.53,3.98,2.44,5.97,3.68,4.31,2.69,5.56,5.9,6.76,10.49,1.39,5.3,4.09,7.66,8.74,10.37,4.09,2.38,7.11,4.85,8.61,9.59,1.03,3.24,1.29,6.65,1.8,9.99,2.06,13.45,8.52,25.73,18,35.42.68.69,1.74-.37,1.06-1.06h0Z"/>
    <path class="cls-1" d="m273.21,83.27c-21.41-8.83-49.4,9.47-67.18-9.74-16.97-18.34-9.68-47.11-23.24-67.29l-1.03,1.03c37.71,17.67,60.31,55.04,76.84,91.63,20.79,46.02,35.97,94.52,52.47,142.18,9.55,27.59,19.1,55.17,28.66,82.76.31.91,1.76.52,1.45-.4-17.29-49.93-34.41-99.93-51.9-149.79-15.04-42.89-30.34-88.36-57.54-125.35-13.01-17.69-29.2-32.94-49.23-42.33-.62-.29-1.48.35-1.03,1.03,13.8,20.54,6.05,50.44,24.43,68.58,18.41,18.17,45.51.32,66.89,9.14.89.37,1.28-1.08.4-1.45h0Z"/>
    <path class="cls-1" d="m342.32,329.81c14.43,63.37,21.34,128.28,21.87,193.23.15,18.19-.21,36.38-1.01,54.55-.04.97,1.46.96,1.5,0,2.84-64.62-.12-129.54-10.32-193.44-2.93-18.36-6.47-36.61-10.6-54.74-.21-.94-1.66-.54-1.45.4h0Z"/>
  </g>
</svg>