<svg width="78" height="47" viewBox="0 0 78 47" fill="none" xmlns="http://www.w3.org/2000/svg">
<rect x="1.5" y="45.5" width="44" height="75" rx="22" transform="rotate(-90 1.5 45.5)" fill="#F9F5E7" stroke="#F9F5E7" stroke-width="3"/>
<circle cx="54" cy="24" r="17" fill="#653603"/>
<path d="M55.4349 31.9775L55.4747 31.4791L55.4349 31.9775ZM53.7155 31.4863L54.2035 31.3776L53.7155 31.4863ZM55.9404 18.2131L56.2222 17.8L55.9404 18.2131ZM62.5 25C62.5 21.4101 59.5899 18.5 56 18.5V17.5C60.1421 17.5 63.5 20.8579 63.5 25H62.5ZM56 31.5C59.5899 31.5 62.5 28.5899 62.5 25H63.5C63.5 29.1421 60.1421 32.5 56 32.5V31.5ZM55.4747 31.4791C55.6479 31.4929 55.8231 31.5 56 31.5V32.5C55.7965 32.5 55.5947 32.4919 55.3951 32.4759L55.4747 31.4791ZM55.2135 29.6509C57.1776 28.5315 58.5 26.4196 58.5 23.9995H59.5C59.5 26.7933 57.9721 29.2297 55.7087 30.5197L55.2135 29.6509ZM58.5 23.9995C58.5 21.767 57.375 19.7971 55.6586 18.6261L56.2222 17.8C58.1999 19.1494 59.5 21.4225 59.5 23.9995H58.5ZM55.3951 32.4759C54.8671 32.4338 54.4103 32.3987 54.0806 32.3209C53.7653 32.2464 53.3352 32.0786 53.2275 31.595L54.2035 31.3776C54.1761 31.2543 54.0593 31.2884 54.3104 31.3476C54.5472 31.4036 54.91 31.434 55.4747 31.4791L55.3951 32.4759ZM55.7087 30.5197C55.0872 30.874 54.6637 31.1164 54.3998 31.3123C54.2677 31.4104 54.2131 31.4702 54.1949 31.4966C54.1858 31.5098 54.2216 31.4586 54.2035 31.3776L53.2275 31.595C53.1693 31.3338 53.251 31.1041 53.3715 30.9292C53.4829 30.7675 53.6415 30.6298 53.8037 30.5094C54.1284 30.2683 54.6178 29.9904 55.2135 29.6509L55.7087 30.5197ZM56 18.5C56.1966 18.5 56.3351 18.3581 56.3744 18.2148C56.4123 18.0767 56.3702 17.901 56.2222 17.8L55.6586 18.6261C55.4166 18.461 55.3473 18.1787 55.4101 17.9501C55.4742 17.7164 55.6895 17.5 56 17.5V18.5Z" fill="#F9F5E7"/>
<path d="M49.4 23.2L49.4 23.2C49.5014 23.5041 49.5521 23.6562 49.6028 23.7225C49.8029 23.9843 50.1971 23.9843 50.3972 23.7225C50.4479 23.6562 50.4986 23.5041 50.6 23.2L50.6 23.2C50.6818 22.9547 50.7227 22.832 50.7756 22.721C50.9729 22.3067 51.3067 21.9729 51.721 21.7756C51.832 21.7227 51.9547 21.6818 52.2 21.6L52.2 21.6C52.5041 21.4986 52.6562 21.4479 52.7225 21.3972C52.9843 21.1971 52.9843 20.8029 52.7225 20.6028C52.6562 20.5521 52.5041 20.5014 52.2 20.4L52.2 20.4C51.9547 20.3182 51.832 20.2773 51.721 20.2244C51.3067 20.0271 50.9729 19.6933 50.7756 19.279C50.7227 19.168 50.6818 19.0453 50.6 18.8C50.4986 18.4959 50.4479 18.3438 50.3972 18.2775C50.1971 18.0157 49.8029 18.0157 49.6028 18.2775C49.5521 18.3438 49.5014 18.4959 49.4 18.8C49.3182 19.0453 49.2773 19.168 49.2244 19.279C49.0271 19.6933 48.6933 20.0271 48.279 20.2244C48.168 20.2773 48.0453 20.3182 47.8 20.4C47.4959 20.5014 47.3438 20.5521 47.2775 20.6028C47.0157 20.8029 47.0157 21.1971 47.2775 21.3972C47.3438 21.4479 47.4959 21.4986 47.8 21.6C48.0453 21.6818 48.168 21.7227 48.279 21.7756C48.6933 21.9729 49.0271 22.3067 49.2244 22.721C49.2773 22.832 49.3182 22.9547 49.4 23.2Z" stroke="#F9F5E7"/>
</svg>
