<?xml version="1.0" encoding="UTF-8"?>
<svg id="Layer_1" data-name="Layer 1" xmlns="http://www.w3.org/2000/svg" version="1.1" viewBox="0 0 78 47">
  <defs>
    <style>
      .cls-1, .cls-2, .cls-3 {
        stroke: #653603;
      }

      .cls-1, .cls-3 {
        fill: none;
      }

      .cls-2 {
        fill: #f9f5e7;
        stroke-width: 3px;
      }

      .cls-4 {
        fill: #eeb669;
        stroke-width: 0px;
      }

      .cls-3 {
        stroke-linecap: round;
      }
    </style>
  </defs>
  <path class="cls-2" d="M1.5,23.5h0C1.5,11.3,11.3,1.5,23.5,1.5h31c12.2,0,22,9.8,22,22h0c0,12.2-9.8,22-22,22h-31c-12.2,0-22-9.8-22-22Z"/>
  <circle class="cls-4" cx="25" cy="23" r="17"/>
  <circle class="cls-1" cx="25" cy="23" r="3.5"/>
  <path class="cls-3" d="M25,16v-2"/>
  <path class="cls-3" d="M25,32v-2"/>
  <path class="cls-3" d="M29.9,18l1.4-1.4"/>
  <path class="cls-3" d="M18.6,29.4l1.4-1.4"/>
  <path class="cls-3" d="M32,23h2"/>
  <path class="cls-3" d="M16,23h2"/>
  <path class="cls-3" d="M29.9,28l1.4,1.4"/>
  <path class="cls-3" d="M18.6,16.6l1.4,1.4"/>
</svg>