<?xml version="1.0" encoding="UTF-8"?>
<svg id="Layer_1" data-name="Layer 1" xmlns="http://www.w3.org/2000/svg" viewBox="0 0 1512 297.6">
  <defs>
    <style>
      .cls-1 {
        fill: #d19665;
      }

      .cls-1, .cls-2, .cls-3 {
        stroke-width: 0px;
      }

      .cls-2 {
        fill: #efe9d5;
      }

      .cls-3 {
        fill: #efd8c8;
      }
    </style>
  </defs>
  <path class="cls-3" d="M341.5,123c-141.6,120-289.3,50-345.5,0h-30V0h1547l75,81c-22,20-67.8,56.4-75,42-9-18-198-138-369.5,0-137.2,110.4-337.5,46-420.5,0-68.2-50-239.9-120-381.5,0Z"/>
  <path class="cls-2" d="M307.55,206.01C159.82,354.07-12.66,289.35-80.43,238.48l-33.69,2.82L-334.67,48.75,1509.33,16.75l194.01,24.96c-22.82,24.53-70.83,69.71-80.27,54.21-11.8-19.37-235.31-136.36-414.93,34.72-143.69,136.87-374.66,83.37-472.19,39.52-81.25-49.74-280.67-112.21-428.4,35.85Z"/>
  <path class="cls-1" d="M341.83,122.75c-141.6,120-289.33,50-345.5,0h-30V-.25h1547l75,81c-22,20-67.8,56.4-75,42-9-18-198-138-369.5,0-137.2,110.4-337.5,46-420.5,0-68.17-50-239.9-120-381.5,0Z"/>
</svg>