<?xml version="1.0" encoding="utf-8"?>
<!-- Generator: Adobe Illustrator 27.9.1, SVG Export Plug-In . SVG Version: 6.00 Build 0)  -->
<svg version="1.1" id="Layer_1" xmlns="http://www.w3.org/2000/svg" xmlns:xlink="http://www.w3.org/1999/xlink" x="0px" y="0px"
	 viewBox="0 0 1512 297.6" style="enable-background:new 0 0 1512 297.6;" xml:space="preserve">
<style type="text/css">
	.st0{fill:#F9F5E7;}
	.st1{fill:#EFD8C8;}
</style>
<g>
	<path class="st0" d="M307.2,206.3C159.5,354.3-13,289.6-80.8,238.7l-33.7,2.8L-126,103.4L510.5,29l1094-27.5L1703,42
		c-22.8,24.5-70.8,69.7-80.3,54.2c-11.8-19.4-235.3-136.4-414.9,34.7c-143.7,136.9-374.7,83.4-472.2,39.5
		C654.4,120.7,455,58.2,307.2,206.3z"/>
</g>
<path class="st1" d="M341.5,123C199.9,243,52.2,173-4,123h-30V0h1547l75,81c-22,20-67.8,56.4-75,42c-9-18-198-138-369.5,0
	C1006.3,233.4,806,169,723,123C654.8,73,483.1,3,341.5,123z"/>
</svg>
