<?xml version="1.0" encoding="utf-8"?>
<!-- Generator: Adobe Illustrator 27.9.1, SVG Export Plug-In . SVG Version: 6.00 Build 0)  -->
<svg version="1.1" id="Layer_1" xmlns="http://www.w3.org/2000/svg" xmlns:xlink="http://www.w3.org/1999/xlink" x="0px" y="0px"
	 viewBox="0 0 612 792" style="enable-background:new 0 0 612 792;" xml:space="preserve">
<style type="text/css">
	.st0{fill:#CB8B5D;}
</style>
<g id="Layer_1_00000035532179583792905680000013350243899612197047_">
	<g>
		<g>
			<path class="st0" d="M233.3,128.9c2.4,1.9,4.8,4,6.9,6.3c1.1,1.1,2.1,2.3,3,3.5c-1.7-2.2,1.2,1.9,1.2,1.9
				c3.8,5.7,6.9,11.9,9.7,18.1c5.6,12.3,10.7,25.6,15.5,38.9c10.1,28.1,17.8,56.8,25.3,85.6c7.1,27.4,14.3,54.9,24.6,81.4
				c11,28.4,25.6,54.2,43.7,78.7c21.2,28.9,43.3,57.3,65,85.9c5,6.7,13.4,10.2,21.2,5.6c6.9-4,10.2-14.2,5.6-21.2
				c-4.1-6.2-5.4-9.6-6.8-17.4c0,0-0.4-2.6-0.2-1.2s-0.1-1.3-0.1-1.2c-0.1-1.7-0.2-3.3-0.2-5c-0.1-3.9,0.1-7.7,0.5-11.6
				c1.5-14.3,7.1-30.8,9.7-46c5.3-30.7,4.3-62-3.2-92.2c-7.4-29.9-21.3-57.7-40-82.1c-19.2-25-41.7-46.9-64.3-68.8
				c-26.5-25.7-53.4-50.9-83-73.1c-6.1-4.6-15.8-1.6-20,4c-5,6.7-3.7,14.1,1.2,20.3c-1.4-1.8,2.1,2.7,1.8,2.4
				c0.7,0.9,1.4,1.9,2.1,2.8c1.7,2.3,3.4,4.7,5.1,7c3.5,5,6.9,10,10.1,15.1c6.2,9.8,11.9,19.8,17.2,30.1
				c10.7,20.8,18.5,40,25.3,62.9c6.6,22.1,10.3,45,17,67.1c3.5,11.6,8,23.1,13.8,33.8c5.8,10.5,13.3,19.8,20.5,29.2
				c17.3,22.6,30.2,47.8,42.8,73.3c5.4,11,20.9,9.1,26.8,0c11.9-18.3,18.2-40.5,17.3-62.3c-1-23.1-9.1-44.5-18.1-65.5
				c-8-18.7-15.9-37.7-27-54.7c-5.6-8.6-12.1-16.8-19.4-24.1c-6.6-6.7-13.8-12.9-20.2-19.7c-1.8-1.9-3.6-3.9-5.3-6
				c-1.7-2,1,1.5-0.5-0.6c-0.8-1.1-1.6-2.2-2.3-3.3c-2.6-3.9-4.7-8.2-7.3-12.1c-6.9-10.5-16-18.6-29.2-18.9
				c-12.5-0.3-18.3,13.2-13.4,23.3c34,69.6,71.3,137.8,91.6,212.6c4.6,16.8,30.5,13.5,30.5-4.1c-0.1-51-18.9-100.2-52-138.8
				c-5.5-6.4-16.3-5.6-21.9,0c-6.3,6.3-5.5,15.5,0,21.9c12.4,14.5,24.9,35.9,31.4,53.6c8,21.9,11.4,40.9,11.5,63.3
				c10.1-1.4,20.3-2.8,30.5-4.1c-20.9-77.1-59.8-148.5-94.7-220c-4.5,7.8-8.9,15.6-13.4,23.3c3.1,0.1,0.1,0-0.4-0.1
				c-0.4-0.1-3-1.5-0.4-0.2c1.1,0.6,1.3,1.6-0.2-0.2c0.5,0.6,1.2,1.3,1.8,1.8c0.2,0.1,1.5,1.9,0.5,0.5c-1.2-1.5,0.5,0.8,0.8,1.2
				c1.1,1.7,2.2,3.5,3.2,5.3c4.5,7.8,9.6,15.1,15.7,21.8c5.8,6.4,12.3,12.1,18.4,18.1c2.7,2.6,5.4,5.3,7.9,8.1
				c3.5,3.8,5.1,6,7.7,9.6c10.4,15,17.8,31.7,25.1,48.3c7.1,16.4,15.1,34.3,17.6,53.1c-0.1-0.7-0.2-2,0.1,1.3c0.1,1.5,0.3,3,0.3,4.5
				c0.1,2.6,0.2,5.3,0.1,8c-0.2,5.9-0.4,7.4-1.7,13.1c-2.4,10.5-5.5,17.5-11.4,26.5c8.9,0,17.9,0,26.8,0
				c-11.2-22.7-22.5-45.5-37.4-66.1c-7-9.7-14.8-18.8-21.4-28.9c-6.9-10.6-10.6-19.2-14.2-30.6c-7-22-10.6-44.9-17-67.1
				c-6.8-23.5-15.8-46.3-26.6-68.2c-12.2-24.6-27-47.4-43.8-69c-6.3,8.1-12.5,16.2-18.8,24.3c24,17.9,47.3,39.8,69.4,61.1
				c21.8,21,44,41.8,63.2,65.2c4.5,5.4,8,10.1,12.3,16.5c4.1,6,7.9,12.2,11.3,18.6c7,12.9,11.2,23.7,15.3,38.2
				c7.4,26.6,9.1,56.3,4.6,82.4c-6.1,34.7-21.6,72.8,0.3,105.4c8.9-5.2,17.9-10.4,26.8-15.7c-19.6-25.9-39.4-51.8-59-77.8
				c-17.4-23.1-34.3-49.1-44.6-74.5c-22.1-54.4-31-113-50.6-168.3c-5.8-16.4-12.2-32.6-19.2-48.5c-6.2-14-14.1-27.9-26.3-37.6
				c-6.6-5.2-15.5-6.4-21.9,0C227.9,112.3,226.7,123.6,233.3,128.9L233.3,128.9z"/>
		</g>
	</g>
	<g>
		<g>
			<path class="st0" d="M391.3,587.5c-25.6-32.4-55.4-64.7-96.1-77.2c-23-7-47.3-5.7-71-4.3c-23.5,1.4-44.4,2-66.3-5.4
				c-5-1.7-8.8-3.2-12.7-5c-5.3-2.5-10.6-5.1-15.7-8.1c-0.8-0.5-1.7-1.1-2.5-1.5c-3.9-2.1,0.8,1-1.1-0.7c-1.7-1.5-3.4-3.9-1.4-0.6
				c0.8,1.4-0.2,1.7,0.1,0.1c0,0.2-1.5,4.4-0.6,2.9c1.2-2-1.8,3.3,0.1,0c-0.4,0.3-0.8,0.6-1.2,0.9c0.7-0.5,1.4-1,2.1-1.4
				c0.8-0.4,1.5-0.8,2.3-1.2c-2.8,1.4-0.2,0.1,0.6-0.1c1.9-0.5,3.7-1.1,5.6-1.5c2.5-0.5,4.9-1,7.4-1.4c1.4-0.2,2.8-0.5,4.1-0.7
				c0.5-0.1,5-0.7,2.5-0.4c10.5-1.4,21.1-2,31.7-2c10.6,0,21.2,0.6,31.8,1.8c1.1,0.1,2.2,0.3,3.3,0.4c-2.1-0.3,0.6,0.1,0.9,0.1
				c2.8,0.4,5.5,0.8,8.3,1.3c5.5,1,11,2.1,16.5,3.4c10.1,2.4,20.1,5.3,29.9,8.7c10.7,3.7,18.1,6.7,27.5,11.2
				c20.5,9.6,42.8,22.1,57.9,36.3c4.6,4.4,7.4,7.4,10.1,11.7c1.4,2.2,2.7,4.5,3.8,6.9c-1-2.2,0,0,0.1,0.5c0.5,1.4,1,2.8,1.3,4.3
				c0.3,1.2,0.6,2.4,0.8,3.7c0.2,1.1,0.2,1,0-0.4c0.1,0.7,0.1,1.5,0.2,2.2c0.1,1.2,0.1,2.5,0.1,3.7c0,0.7-0.4,4.9,0,1.8
				c-0.4,2.4-1,4.8-1.8,7.1c0.9-2.6-0.2,0.3-0.5,0.9c-0.3,0.5-3,4.5-1.3,2.3c-5.2,6.5-6.4,15.5,0,21.9c5.4,5.4,16.7,6.6,21.9,0
				c16.4-20.5,16-48.6,2.1-70.5c-12.9-20.3-34-34.2-54.5-46.2c-41.6-24.3-88.6-39.4-136.7-43.2c-23.9-1.9-48.1-0.4-71.7,4
				c-10.5,2-21.6,5.5-28.8,13.9c-10.2,11.7-8.7,28.7,2.8,39.1c9.2,8.4,21.5,13.7,32.9,18.5c11.5,4.8,23.2,8.7,35.6,10.6
				c26.8,4.1,53.3,0,80.2-0.2c13.9-0.1,24.8,0.9,37.9,5.4c1,0.3,2,0.7,2.9,1c1,0.4,1.9,0.7,2.9,1.1c-1.3-0.6-1.1-0.5,0.6,0.3
				c2.6,1.2,5.1,2.5,7.6,3.8c5.3,2.9,10.3,6.1,15.1,9.6c0,0,4.1,3.1,1.9,1.4c1.2,1,2.5,2,3.7,3c2.4,2,4.8,4.1,7.2,6.3
				c4.3,4,8.5,8.1,12.5,12.4c8.8,9.3,17,19.2,25,29.3c5.2,6.6,16.5,5.4,21.9,0C397.8,602.9,396.5,594,391.3,587.5L391.3,587.5z"/>
		</g>
	</g>
	<g>
		<g>
			<path class="st0" d="M157.6,490.9c-0.4-1.8-0.4-1.7-0.1,0.2c-0.1-0.9-0.1-1.8-0.1-2.6c0-0.9,0.1-1.8,0.1-2.6
				c-0.3,1.9-0.2,2,0.1,0.2c0.4-1.3,0.7-2.6,1.2-3.8c-1.2,3.3,1.1-1.6,1.4-2.3c1.5-2.9-1.3,1,0.8-1.1c0.5-0.5,4.5-4.2,1.8-2.1
				c1.4-1.1,2.9-1.9,4.5-2.7c-2.4,1.2,0.2,0.1,1.3-0.3c1.8-0.4,1.7-0.4-0.2-0.1c0.9-0.1,1.8-0.1,2.6-0.1c1.4,0,3.9,0.4,1.1-0.1
				c1.8,0.3,3.4,0.8,5.1,1.4c-3.2-1,1.6,0.8,2.3,1.3c0.7,0.4,3.6,2.8,1.2,0.7c1.3,1.2,2.6,2.4,3.8,3.8c-2.1-2.5,0.2,0.6,0.6,1.2
				c0.8,1.6,0.8,1.5,0.1-0.1c0.3,0.8,0.6,1.7,0.9,2.5s0.4,1.7,0.6,2.6c-0.2-1.7-0.3-2-0.2-0.8c-0.4,1.3,0,3.2-0.1,4.6
				c0.4-3.8-0.7,1.6-0.9,2.4c-1.1,3.7,1.4-2.1-0.5,1.2c-0.3,0.6-3.4,5.1-1.2,2.4c-1,1.2-2.1,2.3-3.2,3.4c-0.8,0.7-0.6,0.6,0.6-0.3
				c-0.7,0.5-1.4,1-2.2,1.5c-0.8,0.5-1.5,0.9-2.3,1.2c1.7-0.7,1.7-0.7,0-0.1c-0.7,0.2-4.6,0.6-1.1,0.5c-1.8,0.1-3.5,0.1-5.3,0
				c3.7,0.3-0.9-0.4-1.7-0.6c-0.6-0.2-1.3-0.4-1.9-0.6c1.6,0.8,1.6,0.8,0,0c-1.6-0.9-3.1-1.7-4.6-2.8c2.6,2-0.6-0.7-0.9-1
				c-0.6-0.6-1.2-1.3-1.8-2c1.1,1.4,1.1,1.4,0.1-0.1c-0.5-0.8-0.9-1.5-1.3-2.3c0.6,1.7,0.7,1.7,0.1,0c-0.5,4-1,8-1.6,11.9
				c1.2-2.1,2.4-4.1,3.5-6.2c-9.4-1.2-18.9-2.5-28.3-3.7c3.6,10.9,13,19.1,24.9,19c11.6-0.1,21.5-8.5,24.6-19.4
				c-8.6,2.3-17.3,4.6-25.9,6.8c2.2,1.9,4.4,3.8,6.6,5.7c8.6,7.3,22.8,5.1,25.9-6.8c0.7-2.8,1.4-5.6,2.2-8.4c-10,0-19.9,0-29.9,0
				c2.2,6.5,5.4,12,10.1,17c6.2,6.6,15.6,5.1,21.9,0c3.4-2.7,6.2-6.3,8.3-10.1c-7.1,1.9-14.1,3.7-21.2,5.6c3.2,2.4,6.5,4.7,9.8,7.1
				c8,5.8,20.6-0.2,22.8-9.3c-2.1,5-5.4,7.6-9.8,7.7c1.7,0.1,1.6,0-0.6-0.2c1.2,0.3,2.2,0.6,3.4,1c3.4,1.1,7.1,1.7,10.6,1.6
				c11.6-0.4,19.7-8.1,20.6-19.7c-6.5,5-13.1,10-19.6,15c3.1,1.3,6.3,2.8,9.5,3.9c4.5,1.5,8.5,0.9,13.2,0.8c3.8-0.1,7.5,0,11.3,0.2
				c3.4,0.2,6.6,0.5,8.9,0.9c14.2,2.3,26.7,6.8,38.2,12.6c24.4,12.4,45.9,29.6,69.8,42.8c7.1,3.9,17.2,2,21.2-5.6
				c3.9-7.3,2-17-5.6-21.2c-24.4-13.5-46.4-31.1-71.3-43.6c-13.4-6.7-27.5-12-42.2-14.6c-8.1-1.4-16.4-2.4-24.6-2.5
				c-3.1,0-8.9,0.7-10.9,0.4c-1.8-0.3-6.6-2.8-9.2-3.9c-10.1-4.2-18.9,6.1-19.6,15c1.3-7.5,4.8-11.3,10.4-11.3c-0.6,0-1.1,0-1.6,0
				c-1.1-0.1,2.9,1-0.2-0.3c-3.1-1.3-7.1-2-10.4-2c-9.7-0.1-18.9,5.2-21.3,15.1c7.6-3.1,15.2-6.2,22.8-9.3c-3.2-2.4-6.5-4.7-9.8-7.1
				c-6.6-4.8-17.5-1.2-21.2,5.6c-0.2,0.4-2.3,3.3-1.3,2.2c0.9-1-2.1,1.7-2.1,1.6c7.3,0,14.6,0,21.9,0c-3.2-3.4,1.5,2.2-1.3-1.6
				c-1.7-2.4,0.1,1.2-0.9-1.8c-2.1-6.3-7.9-11.7-14.9-11.4c-6.8,0.3-13.2,4.6-14.9,11.4c-0.7,2.8-1.4,5.6-2.2,8.4
				c8.6-2.3,17.3-4.6,25.9-6.8c-2.2-1.9-4.4-3.8-6.6-5.7c-8.7-7.5-22.5-5-25.9,6.8c1.4-5,8.9-4,10.3,0.4c-4-12.3-21.5-15.8-28.3-3.7
				c-3.5,6.2-7.1,12-4.6,19.4c1.8,5.5,4.9,10.4,8.6,14.8c5.8,6.9,14.2,11.9,22.8,14.4c19.5,5.7,39.5-3,50.3-19.8
				c10.7-16.9,8.9-38.4-4-53.5c-11.8-13.8-32.9-20-49.9-13.4c-21.6,8.4-33.6,31.5-28.8,54c1.7,7.9,11.4,13.3,19.1,10.8
				C155.1,507.3,159.4,499.4,157.6,490.9L157.6,490.9z"/>
		</g>
	</g>
</g>
<g id="Layer_2_00000044141583118023186520000003740656279029437604_">
	<g>
		<g>
			<path d="M407.9,642.5c-12.1-27.7-23.6-55.6-36.3-83c-5.5-11.9-11.6-23.1-20.4-32.9c-8.8-9.8-19.6-17.8-30.4-25.2
				C274,469.1,219.3,449,162.8,443c-32.8-3.5-66-2.1-98.3,4.1c-0.6,0.1-0.7,0.9-0.3,1.2c10.9,11.1,29.2,13.4,42.5,5
				c7.2-4.5,11.7-11.8,17.9-17.4c9.7-8.6,22.5-4.1,31.2,3.6c3.8,3.3,6.7,7.4,10.3,10.9c3.4,3.3,7.1,6.3,11.1,8.9
				c7.9,5.3,16.8,9,26,11.5c9,2.5,18.7,4.2,28.1,4.2c11.4,0,22.7-2.9,33.7-5.5c12.6-3,25.5-6.2,38.2-2.2c6,1.9,11.5,5.3,15.7,10
				c5.5,6.2,6,13.6,3.6,21.3c-0.2,0.5,0.4,1.1,0.9,0.9c11.8-4.6,4.7-18.4-0.7-25.5c-0.3,0.3-0.7,0.7-1,1
				c27.6,16.8,49,42.7,60.8,72.8c3.3,8.4,5.9,17.2,7.6,26c1.6,8.4,4.2,20,1.5,28.4c-3.6,11.3-15.5,5.9-21-0.5
				c-4.9-5.7-8.5-11.7-14.4-16.6c-13.1-10.8-29.6-16.3-45.5-21.6c0.1,0.5,0.1,0.9,0.2,1.4c13.3-8,28.1-12.6,43.6-13.3
				c0.8,0,1.1-1.3,0.2-1.5c-13.8-2.9-28.8-2.1-41.7,4c-3.1,1.5-6.2,3.2-9.4,4.5c-5.4,2.1-9.8,0.8-14.6-2c-3.8-2.1-7.6-4.2-11.4-6.3
				c-4.4-2.5-9.6-5.5-12.3-9.9c-4.4-7.4,4.4-11.1,10.4-12.3c11.7-2.4,23.7-4.3,35.7-3.9c4.6,0.2,10.6,0.6,14.1,4
				c0.7,0.7,1.8,1.9,1.9,2.9c0.1,2.3-2.6,1.4-4.5,1.3c-4.1-0.2-8.2-0.5-12.4-0.8c-8.1-0.5-16.1-1.1-24.1-1.9
				c-5.9-0.6-13.5-1.9-19.1,0.6c-2.7,1.2-4.9,3.2-7.5,4.6c-5,2.7-8.4,0.8-11.8-3c-3.6-4.1-8.9-7.9-14.5-8.5
				c-7.5-0.8-15.7,1.7-23.2,2.3c-4.2,0.3-10.2,1-13.7-1.6c-3.4-2.4-3.7-7.1-5.4-10.6c-2-4.1-7.8-6.1-12-6.4
				c-6.9-0.5-14,2.5-20.8,1.1c-12.6-2.6-11.5-18.2-4.6-26c5.5-6.1,13.2-8.9,20.8-11.4c-0.2-0.4-0.5-0.8-0.7-1.2
				c-0.6,0.8-4.7,4.6-4.8,5.1c0.1-1.5,4.6-3.5,5.5-3.9c-0.3-0.4-0.6-0.7-0.9-1.1c-10.2,13.9-20.8,27.7-38.4,31.8
				c-4.4,1-9.3,1-13.7,0c-2.3-0.5-4.5-1.3-6.6-2.4c-1-0.5-2-1.1-2.9-1.7c-1.2-0.5-1.4-1.2-0.5-2.1c0.3-2,2.9-4,4.2-5.5
				c1.3-1.6,2.7-3.2,4-4.9c2.5-3.1,4.9-6.2,7.2-9.4c0.4-0.6-0.4-1.4-1-1c-1.1,0.7-4.2,2.1-4.6,3.7c-0.1,0.5,0.2,0.9,0.7,1
				c1.7,0,3.8-2.4,4.7-3.5c0.5-0.6-0.2-1.6-0.9-1.2c-9.4,5.9-23.7,14-34.7,7.5c-4.3-2.5-7-6.9-9.4-11.1c-1-1.8-2-3.7-3.1-5.4
				c-1.1-1.6-2.7-2.7-3.8-4.2c-1.3-1.8-1.3,0.1-0.7-1.6c0.4-1,2.4-1.9,3.2-2.5c2-1.3,4-2.4,6.1-3.4c4.9-2.4,10.1-4,15.4-5.2
				c10.5-2.4,21.4-2.9,32.1-3.1c45-0.9,91.9,9.8,133,28c20,8.9,39.5,20.1,56.5,34c15.7,12.9,28.6,28.7,39.2,46
				c5.1,8.4,9.6,17,13.8,25.9c2.1,4.5,4.1,9,6.1,13.5c1.1,2.6,2.3,5.2,3.3,7.8c0.8,2.2,0.9,4.3,1.6,6.5c1.9,5.6,4.8,10.9,6.8,16.4
				c2.1,5.6,4,11.2,5.8,16.8c3.6,11.2,7.9,22.3,10.3,33.8c1.5,7.2,2.9,16.2,1.1,23.5c-1,4-4.5,10.7-9.4,7.5
				c-5.2-3.4-3.3-9.4-0.9-13.7c2.7-4.9,6.4-9.1,9-14.1c2.5-4.9,4.5-10.2,5.8-15.5c6.2-25.7,7-51.6,6.5-77.8c0-1-1.5-1-1.5,0
				c0.5,24.9-0.6,49-5.6,73.4c-2.4,11.5-7,21-13.7,30.5c-3.6,5.2-7.1,12.7-1.4,17.7c5.9,5.1,10.3-0.4,12.1-6.2
				c3-9.7,0.7-21.6-1.9-31.2c-3-11.4-7-22.6-10.8-33.8c-3.5-10.6-8.1-21-11.4-31.6c-2.7-8.9-7.3-17.6-11.2-25.9
				c-4.2-8.8-8.8-17.5-14-25.8c-10.3-16.7-22.9-31.9-38-44.4c-32.3-26.8-72.3-43.4-112.8-53.3c-25-6.1-50.7-10-76.5-9.7
				c-21.3,0.2-44.3,1.8-61.5,15.8c-0.4,0.3-0.2,1,0.2,1.2c9.7,5.2,10.3,19.1,21.2,23.4c11.3,4.5,24.5-2.8,33.9-8.6
				c-0.3-0.4-0.6-0.8-0.9-1.2c-0.7,0.8-2.7,1.9-3.1,2.7c-1.2,2.4,3.7-1.4,4-1.6c-0.3-0.3-0.7-0.7-1-1c-3.7,5-7.6,9.9-11.6,14.6
				c-1.4,1.7-5.9,4.9-4.5,7.8c1.1,2.4,6.2,4,8.6,4.8c4.3,1.5,8.9,1.9,13.4,1.5c20-1.9,32.4-18.1,43.5-33.1c0.4-0.5-0.2-1.3-0.9-1.1
				c-1.4,0.6-8,3.7-6.6,6.3c1.6,3,6.8-4.4,7.4-5.1c0.4-0.5,0.1-1.5-0.7-1.2c-12.6,4.1-28.6,11.8-27.1,27.7
				c0.6,6.2,4.7,11.4,10.9,12.6c6.8,1.3,13.7-1.5,20.5-1.1c5.1,0.3,10.1,2.5,12,7.3c1.1,3,1.9,6.2,4.2,8.6c5,5.3,15.8,2.8,22.1,2
				c4.8-0.6,9.7-1.6,14.6-1.6c6.2,0,11.5,3.6,15.5,8.1c1.9,2.2,2.4,4.1,5.3,4.7c3.3,0.7,6.1-0.2,8.9-1.8c1.9-1.1,3.6-2.5,5.6-3.5
				c3.4-1.8,7.1-1.8,10.9-1.7c5.2,0.1,10.4,0.8,15.5,1.3c11.8,1.2,23.6,1.5,35.4,2.2c0.4,0,0.8-0.4,0.8-0.8
				c-0.9-9.4-11.4-10.7-19-10.8c-12.7-0.2-26.7,1.2-38.9,4.9c-10.1,3.1-11,11.7-3.4,18.2c3.8,3.3,8.3,5.8,12.8,8.1
				c4.9,2.6,9.7,6.4,15.3,7.4c8.2,1.4,16.2-5.8,23.6-8.2c11.2-3.6,23.1-4,34.5-1.5c0.1-0.5,0.1-1,0.2-1.5
				c-15.8,0.8-30.8,5.4-44.3,13.5c-0.6,0.3-0.4,1.2,0.2,1.4c17.7,5.9,37,12.1,50.1,26.1c5.1,5.4,8.4,12.9,14.9,16.9
				c4.5,2.8,10.5,3.7,14.6-0.2c5.1-4.9,4.1-13.3,3.6-19.7c-0.7-9.8-2.7-19.5-5.6-29c-5.1-16.8-13-32.7-23.4-46.9
				c-11.4-15.5-25.7-28.6-42.2-38.6c-0.6-0.4-1.5,0.4-1,1c4.6,6.1,12.2,19.2,1.6,23.3c0.3,0.3,0.6,0.6,0.9,0.9
				c2.8-8.8,1.5-17.2-5.1-23.9c-6.1-6.1-14.1-9.7-22.6-10.8c-11.1-1.4-22,1.4-32.7,4c-12.6,3-25.4,6.2-38.4,5
				c-21.8-2.1-43.6-9.2-59.3-25.1c-6.8-6.9-12.1-13.9-21.7-17.2c-8.4-2.8-15.5-1.4-21.9,4.7c-7.9,7.6-13.7,16.7-24.9,19.8
				c-11.5,3.2-24,0.1-32.4-8.4c-0.1,0.4-0.2,0.8-0.3,1.2c57-11,116.4-6.5,171.4,12.1c26.1,8.8,51.1,20.9,74.4,35.8
				c23.1,14.9,44.2,31.6,56.3,56.8c14.2,29.5,26.5,60,39.6,90C407,644.1,408.2,643.4,407.9,642.5L407.9,642.5z"/>
		</g>
	</g>
	<g>
		<g>
			<path d="M418.8,579c0.1-23.1,0.3-46.3-2.7-69.3c-2.9-22.3-9.4-43.8-15.9-65.3c-13.5-44.7-25.6-90.3-43-133.8
				c-2.2-5.4-4.5-10.8-6.8-16.2c-1.9-4.3-3.2-8.8-5.3-13c-5.3-10.8-10.6-21.3-13.6-33c-0.2-0.9-1.7-0.5-1.5,0.4
				c2.5,9.9,6.5,19,11,28.2c3.9,8,7.2,16.1,10.7,24.3c9.2,21.5,16.6,43.8,23.6,66.1c6.9,22.2,13.5,44.5,20.3,66.8
				c6.6,21.8,13.8,43.5,17.6,66c4.4,25.9,4.2,52.4,4.1,78.6C417.2,579.9,418.8,579.9,418.8,579L418.8,579z"/>
		</g>
	</g>
	<g>
		<g>
			<path d="M371.5,410c-18.8-4.6-39.9-9.9-57.3,1.8c-0.2,0.2-0.5,0.5-0.3,0.9c6.4,15.5,16.5,28.1,27.8,40.3c5.9,6.4,12,12.8,18,19.1
				c6.5,7,12.5,13.7,15.9,22.8c4.8,13,1.8,29.2,10.5,40.7c3.5,4.7,9.2,7.5,14,10.7c6.8,4.5,13,9.3,16.8,16.6
				c0.5,0.9,1.7,0.1,1.3-0.8c-2.9-5.5-7.1-9.8-12-13.5c-5.6-4.2-12.5-7.3-17.5-12.3c-6-6-7.1-15.9-8-23.9c-0.7-7-1.8-13.7-4.5-20.2
				c-6.3-14.9-20.1-26-30.9-37.6c-6.3-6.8-12.7-13.5-18-21c-2.5-3.5-4.8-7.1-6.9-10.8c-1-1.7-1.9-3.5-2.7-5.3
				c-0.3-0.7-0.8-1.5-1-2.3c-0.9-3.3-0.3-3.1,1.8-4.3c16.3-9,35.8-3.6,52.7,0.5C372,411.7,372.4,410.2,371.5,410L371.5,410z"/>
		</g>
	</g>
	<g>
		<g>
			<path d="M331.5,248.5c-20.6-49.3-45.4-100.9-92.9-129.5c-0.5-0.3-1.3,0.2-1.1,0.8c13.9,36.9,23.4,75.7,26.8,115
				c0.8,9.5,1.8,19.1,2.3,28.6c0.4,7.5,0.1,14.7,2.9,21.9c4.5,11.5,14.5,20.4,27,21.9c9,1.1,18.5,0.4,27.4-1.4
				c7-1.4,14.4-0.7,17.8-8c0.2-0.4,0-1-0.5-1.1c-1.1-0.3-10.5-3.1-7.8,1.3c1.8,2.9,6.6,2.5,8.2-0.2c0.2-0.4,0-1-0.5-1.1
				c-15.9-4.8-33.1-7.5-49.4-3c-6.3,1.7-12.7,4.3-16.4,10c-2.8,4.4-3.3,9.8-0.7,14.4c4.1,7.4,9.4,14.1,13.1,21.8
				c3.8,7.8,6.8,16,8.7,24.4c1,4.5,1.7,9,2.1,13.6c0.3,3.5-0.1,7.2,0.6,10.6c1.2,5.5,6.5,8.6,11.5,10c3.9,1,8,0.8,12,1
				c5.1,0.2,10.2,0.5,15.4,0.9c10.9,0.9,21.7,2.5,32,6.2c0.9,0.3,1.3-1.1,0.4-1.5c-15.3-5.5-31.6-6.4-47.8-7.2
				c-7.9-0.4-20.4-0.3-22-10.5c-1.2-7.3-0.8-14.7-2.3-22c-3-14.4-9.2-28-17.1-40.4c-2.2-3.4-5.5-6.9-6.5-10.9
				c-1.1-4.5,0.8-9.1,3.9-12.3c6.1-6.3,16.9-8.2,25.3-8.9c8.5-0.7,17,0.2,25.4,2c0.8,0.2,10.4,2.3,10.1,3c-0.5,1.3-5.2-0.5-5-1.2
				c-0.1,0.4,8.4-0.8,3.8,3.7c-2.6,2.5-7,2-10.4,2.8c-8.4,2-17,2.9-25.6,2.6c-15.7-0.5-28.3-9.4-32.6-24.9c-2-7.5-1.4-15.5-1.9-23.2
				c-0.6-8.6-1.5-17.2-2.2-25.8c-3.2-38.4-13.1-76.7-26.6-112.7c-0.4,0.3-0.7,0.6-1.1,0.8c47.1,28.4,71.8,79.7,92.2,128.6
				C330.4,249.8,331.9,249.4,331.5,248.5L331.5,248.5z"/>
		</g>
	</g>
	<g>
		<g>
			<path d="M419.7,561.5c10.3-6,22.1-13.3,26.6-25c2.9-7.5,0.5-14.4,0.2-22.1c-0.3-8.3,3.7-15.5,7.8-22.5c3.5-5.9,7.3-11.8,9.1-18.5
				c2.1-7.4,2-15.2,0.9-22.8c-1.1-8-3.4-15.9-5.7-23.6c-1.3-4.2-3.1-8.2-8.2-7.3c-3.4,0.6-7,2.9-10.1,4.4c-4.1,1.9-8.2,3.8-12.2,5.8
				c-2,1-4.1,2-6.1,3c-2.3,1.1-4.6,2.5-3.7-1.5c1.1-4.7,7.1-7.4,11.5-7.8c7.5-0.7,15.1,2.8,22.4-0.2c4.5-1.9,7.4-5.7,9-10.2
				c2-5.6,2.1-11.8,2.1-17.7c0-7.2-0.4-14.3-3.9-20.8c-1.7-3.2-4-6.1-5.8-9.2c-2.8-4.7-3.7-9.6-4.2-15c-0.7-6.8-1.7-13.2-4.8-19.3
				c-3.1-6.1-7.8-11.3-13.4-15.2c-4.6-3.1-12.7,1-17.4,2.9c-13.9,5.9-25.3,16.8-31.9,30.4c0.4,0.2,0.9,0.5,1.3,0.8
				c9.2-21.3,28.1-37.2,50.7-42.6c0.9-0.2,0.5-1.7-0.4-1.5c-22.9,5.5-42.2,21.7-51.6,43.3c-0.4,0.9,0.9,1.6,1.3,0.8
				c6.4-13.1,17.3-23.7,30.7-29.5c3.3-1.4,6.7-2.6,10.2-3.4c5.1-1.2,7.7,0.8,11.4,4.3c5.4,5.2,9.4,12,11.1,19.4
				c1.7,7.2,1,14.8,3.9,21.7c3.5,8.1,9.6,13.9,10.9,23c1.9,13.8,2,38.3-17.4,37.6c-7.2-0.2-14.3-2.7-21,1.1
				c-4.3,2.4-7.5,6.7-5.6,11.7c0.2,0.5,0.6,0.7,1.1,0.5c8.1-4,16.2-8,24.4-11.8c1.6-0.8,3.5-2,5.3-2.4c7.6-1.7,7.9,1.4,9.3,6.1
				c1.2,4,2.4,8,3.4,12.1c1.9,7.9,3.3,16.1,2.6,24.3c-0.7,8.9-4.4,16.4-8.9,23.9c-3.3,5.5-6.8,11-8.6,17.2c-2,7.3,0.2,14,0.3,21.3
				c0.3,16.1-15.2,26-27.5,33.2C418.1,560.7,418.9,562,419.7,561.5L419.7,561.5z"/>
		</g>
	</g>
	<g>
		<g>
			<path d="M438.8,304.1c-6.6-6.8-11.8-14.8-14.9-23.8c-2.6-7.4-2.2-15.6-5.1-22.7c-3.2-7.7-13-8.2-16-15.6c-1-2.6-1.1-5.4-2.3-7.9
				c-1.3-2.8-3.4-4.5-5.9-6c-4.4-2.7-7.5-4.7-9.9-9.5c-1.4-2.9-2.4-6.3-4.9-8.5c-4.1-3.5-8.7-1.4-12.3,1.7
				c-6.8,5.8-12.5,13-18.8,19.4c-4.5,4.6-8.9,9.4-8.6,16.2c0,0.6,0.8,1,1.3,0.5c10.2-10,31-14.1,31.2-31.4
				c0.2-16.1-15.4-24.4-28.8-28.3c-0.9-0.3-1.3,1.2-0.4,1.4c13.4,3.8,31.4,13.6,27.3,30.7c-3.4,13.9-21.1,17.5-30.3,26.5
				c0.4,0.2,0.9,0.4,1.3,0.5c-0.4-8.2,6.8-13.7,12-19.1c2.8-2.9,5.5-5.9,8.3-8.9c2.8-2.9,6-7.1,9.8-8.8c9.3-4.4,10.9,10.7,16.1,15.1
				c1.8,1.5,4,2.4,6,3.7c4.3,2.7,5.6,5.9,6.8,10.5c1.4,5.3,4.1,7.7,8.7,10.4c4.1,2.4,7.1,4.9,8.6,9.6c1,3.2,1.3,6.6,1.8,10
				c2.1,13.5,8.5,25.7,18,35.4C438.4,305.9,439.4,304.8,438.8,304.1L438.8,304.1z"/>
		</g>
	</g>
	<g>
		<g>
			<path d="M337.2,185.8c-21.4-8.8-49.4,9.5-67.2-9.7c-17-18.3-9.7-47.1-23.2-67.3c-0.3,0.3-0.7,0.7-1,1
				c37.7,17.7,60.3,55,76.8,91.6c20.8,46,36,94.5,52.5,142.2c9.5,27.6,19.1,55.2,28.7,82.8c0.3,0.9,1.8,0.5,1.5-0.4
				c-17.3-49.9-34.4-99.9-51.9-149.8c-15-42.9-30.3-88.4-57.5-125.4c-13-17.7-29.2-32.9-49.2-42.3c-0.6-0.3-1.5,0.3-1,1
				c13.8,20.5,6.1,50.4,24.4,68.6c18.4,18.2,45.5,0.3,66.9,9.1C337.7,187.7,338,186.2,337.2,185.8L337.2,185.8z"/>
		</g>
	</g>
	<g>
		<g>
			<path d="M406.3,432.4c14.4,63.4,21.3,128.3,21.9,193.2c0.1,18.2-0.2,36.4-1,54.5c0,1,1.5,1,1.5,0c2.8-64.6-0.1-129.5-10.3-193.4
				c-2.9-18.4-6.5-36.6-10.6-54.7C407.5,431,406.1,431.4,406.3,432.4L406.3,432.4z"/>
		</g>
	</g>
</g>
</svg>
